STARTFONT 2.1
FONT -JDECW-Gothic-Medium-R-Normal--34-240-100-100-M-340-JISX0208.1983-1.3
SIZE 24 100 100
FONTBOUNDINGBOX 34 34 0 -5

STARTPROPERTIES 26
FONTNAME_REGISTRY ""
FAMILY_NAME "Gothic"
FOUNDRY "JDECW"
WEIGHT_NAME "Medium"
SLANT "R"
SETWIDTH_NAME "Normal"
ADD_STYLE_NAME ""
PIXEL_SIZE 34
POINT_SIZE 240
RESOLUTION_X 100
RESOLUTION_Y 100
SPACING "M"
AVERAGE_WIDTH 340
CHARSET_REGISTRY "JISX0208.1983"
CHARSET_ENCODING "1"
DEVICE_FONT_NAME "Gothic-JISX0208.1983-1"
CHARSET_COLLECTIONS "JISX0208.1983 1"
FULL_NAME "Gothic-JISX0208.1983-1"
COPYRIGHT "Copyright (c) 1990 1991 TYPEBANK, Digital Equipment Corporation Japan"
CAP_HEIGHT 24
X_HEIGHT 17
WEIGHT 10
QUAD_WIDTH 34
DEFAULT_CHAR 41634
FONT_DESCENT 5
FONT_ASCENT 29
ENDPROPERTIES

CHARS 59

STARTCHAR Ca1a2
ENCODING 41378
SWIDTH 1000 0
DWIDTH 34 0
BBX 34 34 0 -5
BITMAP
0000000000
0000000000
0000008000
000001C000
000007E000
000003F000
000001F800
000000FC00
0000007E00
0000003F00
0000003E00
0000001C00
0000001800
0000000000
0000000000
0000000000
0000000000
0000000000
0000000000
0000000000
0000000000
0000000000
0000000000
0000000000
0000000000
0000000000
0000000000
0000000000
0000000000
0000000000
0000000000
0000000000
0000000000
0000000000
ENDCHAR

STARTCHAR Ca1a3
ENCODING 41379
SWIDTH 1000 0
DWIDTH 34 0
BBX 34 34 0 -5
BITMAP
0000000000
0000000000
0000000000
000001F800
000003FC00
0000079E00
0000070E00
0000060700
0000060700
0000070E00
0000079E00
000003FC00
000001F800
0000000000
0000000000
0000000000
0000000000
0000000000
0000000000
0000000000
0000000000
0000000000
0000000000
0000000000
0000000000
0000000000
0000000000
0000000000
0000000000
0000000000
0000000000
0000000000
0000000000
0000000000
ENDCHAR

STARTCHAR Ca1a4
ENCODING 41380
SWIDTH 1000 0
DWIDTH 34 0
BBX 34 34 0 -5
BITMAP
0000000000
0000000000
0000000000
0000000000
0000000F80
0000000F80
0000000F80
0000000F80
0000000F80
0000000380
0000000380
0000000700
0000000600
0000000C00
0000000000
0000000000
0000000000
0000000000
0000000000
0000000000
0000000000
0000000000
0000000000
0000000000
0000000000
0000000000
0000000000
0000000000
0000000000
0000000000
0000000000
0000000000
0000000000
0000000000
ENDCHAR

STARTCHAR Ca1a5
ENCODING 41381
SWIDTH 1000 0
DWIDTH 34 0
BBX 34 34 0 -5
BITMAP
0000000000
0000000000
0000000000
0000000000
000001F000
000001F000
000001F000
000001F000
000001F000
0000000000
0000000000
0000000000
0000000000
0000000000
0000000000
0000000000
0000000000
0000000000
0000000000
0000000000
0000000000
0000000000
0000000000
0000000000
0000000000
0000000000
0000000000
0000000000
0000000000
0000000000
0000000000
0000000000
0000000000
0000000000
ENDCHAR

STARTCHAR Ca1b1
ENCODING 41393
SWIDTH 1000 0
DWIDTH 34 0
BBX 34 34 0 -5
BITMAP
0000000000
0000000080
0000000080
0000000080
0000000080
0000000080
0000000080
0000000080
0000000080
0000000080
0000000080
0000000080
0000000080
0000000080
0000000080
0000000080
0000000080
0000000080
0000000080
0000000080
0000000080
0000000080
0000000080
0000000080
0000000080
0000000080
0000000080
0000000080
0000000080
0000000080
0000000080
0000000080
0000000000
0000000080
ENDCHAR

STARTCHAR Ca1b2
ENCODING 41394
SWIDTH 1000 0
DWIDTH 34 0
BBX 34 34 0 -5
BITMAP
0000000000
8000000000
8000000000
8000000000
8000000000
8000000000
8000000000
8000000000
8000000000
8000000000
8000000000
8000000000
8000000000
8000000000
8000000000
8000000000
8000000000
8000000000
8000000000
8000000000
8000000000
8000000000
8000000000
8000000000
8000000000
8000000000
8000000000
8000000000
8000000000
8000000000
8000000000
8000000000
0000000000
8000000000
ENDCHAR

STARTCHAR Ca1bc
ENCODING 41404
SWIDTH 1000 0
DWIDTH 34 0
BBX 34 34 0 -5
BITMAP
0000000000
0000000000
0000000000
0001F00000
0001F00000
0001F00000
0001F00000
0001F00000
0001F00000
0001F00000
0001F00000
0001F00000
0001F00000
0001F00000
0001F00000
0001F00000
0001F00000
0001F00000
0001F00000
0001F00000
0001F00000
0001F00000
0001F00000
0001F00000
0001F00000
0001F00000
0001F00000
0001F00000
0001F00000
0001F00000
0001F00000
0001F00000
0000000000
0000000000
ENDCHAR

STARTCHAR Ca1bd
ENCODING 41405
SWIDTH 1000 0
DWIDTH 34 0
BBX 34 34 0 -5
BITMAP
0000000000
0000000000
0000000000
0003E00000
0003E00000
0003E00000
0003E00000
0003E00000
0003E00000
0003E00000
0003E00000
0003E00000
0003E00000
0003E00000
0003E00000
0003E00000
0003E00000
0003E00000
0003E00000
0003E00000
0003E00000
0003E00000
0003E00000
0003E00000
0003E00000
0003E00000
0003E00000
0003E00000
0003E00000
0003E00000
0003E00000
0003E00000
0000000000
0000000000
ENDCHAR

STARTCHAR Ca1be
ENCODING 41406
SWIDTH 1000 0
DWIDTH 34 0
BBX 34 34 0 -5
BITMAP
0000000000
0000000000
0000000000
0000000000
0000000000
0000000000
0000000000
0000000000
0000000000
0000000000
0000000000
0000000000
0003E00000
0003E00000
0003E00000
0003E00000
0003E00000
0003E00000
0003E00000
0003E00000
0003E00000
0003E00000
0003E00000
0000000000
0000000000
0000000000
0000000000
0000000000
0000000000
0000000000
0000000000
0000000000
0000000000
0000000000
ENDCHAR

STARTCHAR Ca1c1
ENCODING 41409
SWIDTH 1000 0
DWIDTH 34 0
BBX 34 34 0 -5
BITMAP
0000000000
0000000000
0000000000
0000000000
0000F00000
0001E00000
0001C00000
0003800000
0007800000
0007000000
0007000000
0007000000
0007800000
0007800000
0003800000
0003C00000
0001E00000
0001E00000
0000F00000
0000780000
0000780000
00003C0000
00003C0000
00001C0000
00001C0000
00001C0000
00003C0000
0000380000
0000780000
0000F00000
0001E00000
0000000000
0000000000
0000000000
ENDCHAR

STARTCHAR Ca1c2
ENCODING 41410
SWIDTH 1000 0
DWIDTH 34 0
BBX 34 34 0 -5
BITMAP
0000000000
0000000000
0000000000
0000000000
0000000000
0000000000
0000000000
0000000000
0000000000
0000000000
0000000000
0000000000
FFFFFFFF80
FFFFFFFF80
FFFFFFFF80
0000000000
0000000000
0000000000
0000000000
0000000000
FFFFFFFF80
FFFFFFFF80
FFFFFFFF80
0000000000
0000000000
0000000000
0000000000
0000000000
0000000000
0000000000
0000000000
0000000000
0000000000
0000000000
ENDCHAR

STARTCHAR Ca1c3
ENCODING 41411
SWIDTH 1000 0
DWIDTH 34 0
BBX 34 34 0 -5
BITMAP
0000000000
0000000000
0000000000
0000000000
0000000000
0000000000
0000000000
0000000000
0000000000
0000000000
0000000000
0000000000
0000000000
0000000000
0000000000
0000000000
FFFFFFFF80
FFFFFFFF80
FFFFFFFF80
0000000000
0000000000
0000000000
0000000000
0000000000
0000000000
0000000000
0000000000
0000000000
0000000000
0000000000
0000000000
0000000000
0000000000
0000000000
ENDCHAR

STARTCHAR Ca1c4
ENCODING 41412
SWIDTH 1000 0
DWIDTH 34 0
BBX 34 34 0 -5
BITMAP
0000000000
0000000000
0000000000
0000000000
0003E00000
0003E00000
0003E00000
0003E00000
0000000000
0000000000
0000000000
0000000000
0000000000
0000000000
0000000000
0003E00000
0003E00000
0003E00000
0003E00000
0003E00000
0000000000
0000000000
0000000000
0000000000
0000000000
0000000000
0003E00000
0003E00000
0003E00000
0003E00000
0003E00000
0000000000
0000000000
0000000000
ENDCHAR

STARTCHAR Ca1c5
ENCODING 41413
SWIDTH 1000 0
DWIDTH 34 0
BBX 34 34 0 -5
BITMAP
0000000000
0000000000
0000000000
0000000000
0000000000
0000000000
0000000000
0003E00000
0003E00000
0003E00000
0003E00000
0000000000
0000000000
0000000000
0000000000
0000000000
0000000000
0000000000
0000000000
0000000000
0000000000
0000000000
0000000000
0000000000
0003E00000
0003E00000
0003E00000
0003E00000
0000000000
0000000000
0000000000
0000000000
0000000000
0000000000
ENDCHAR

STARTCHAR Ca1c6
ENCODING 41414
SWIDTH 1000 0
DWIDTH 34 0
BBX 34 34 0 -5
BITMAP
0000000000
0000000000
0000000000
0000000000
0000000000
0000000000
0000000000
0000000000
0000000000
0000000000
0000000000
0000000000
0000000000
0000000000
0000000000
0000000000
0000000000
0000000000
0000000000
0000000000
0000000000
0000000000
0000000000
0000000000
0000000000
0000000000
0000078000
000007F800
000007FC00
000007FE00
000007C600
000007C200
0000000000
0000000000
ENDCHAR

STARTCHAR Ca1c7
ENCODING 41415
SWIDTH 1000 0
DWIDTH 34 0
BBX 34 34 0 -5
BITMAP
0000000000
0000000000
0000040000
0000063E00
0000073E00
000003FE00
000001FE00
0000007E00
0000000000
0000000000
0000000000
0000000000
0000000000
0000000000
0000000000
0000000000
0000000000
0000000000
0000000000
0000000000
0000000000
0000000000
0000000000
0000000000
0000000000
0000000000
0000000000
0000000000
0000000000
0000000000
0000000000
0000000000
0000000000
0000000000
ENDCHAR

STARTCHAR Ca1c8
ENCODING 41416
SWIDTH 1000 0
DWIDTH 34 0
BBX 34 34 0 -5
BITMAP
0000000000
0000000000
0000000000
0000000000
0000000000
0000000000
0000000000
0000000000
0000000000
0000000000
0000000000
0000000000
0000000000
0000000000
0000000000
0000000000
0000000000
000007C000
000007F800
000007FC00
000007FE00
000007C600
0000000200
0000000000
0000000000
000007F000
000007FC00
000007FE00
000007CE00
000007C200
0000000100
0000000000
0000000000
0000000000
ENDCHAR

STARTCHAR Ca1c9
ENCODING 41417
SWIDTH 1000 0
DWIDTH 34 0
BBX 34 34 0 -5
BITMAP
0000000000
0000000000
0000000000
0000000000
0000040000
0000063E00
000007BE00
000003FE00
000001FE00
0000007E00
0000000000
0000000000
0000043E00
0000073E00
000007FE00
000001FE00
000000FE00
0000001E00
0000000000
0000000000
0000000000
0000000000
0000000000
0000000000
0000000000
0000000000
0000000000
0000000000
0000000000
0000000000
0000000000
0000000000
0000000000
0000000000
ENDCHAR

STARTCHAR Ca1ca
ENCODING 41418
SWIDTH 1000 0
DWIDTH 34 0
BBX 34 34 0 -5
BITMAP
0000000000
0000000000
0000000000
0000000000
0000000000
0000000000
0000000000
0000000000
0000000000
0000000000
0000000000
0000000000
0000000000
0000000000
0000000000
0000000000
0000000000
0000000000
0000000000
0000000000
0000000000
0000000000
0007E00000
007FFF0000
03FFFFC000
07FFFFF000
1FC001FC00
3E00003E00
3800000E00
2000000200
2000000100
0000000000
0000000000
0000000000
ENDCHAR

STARTCHAR Ca1cb
ENCODING 41419
SWIDTH 1000 0
DWIDTH 34 0
BBX 34 34 0 -5
BITMAP
0000000000
0000000000
0000000000
0000000000
2000000100
2000000200
3800000E00
3E00003E00
1FC001FC00
07FFFFF000
03FFFFC000
007FFF0000
0003E00000
0000000000
0000000000
0000000000
0000000000
0000000000
0000000000
0000000000
0000000000
0000000000
0000000000
0000000000
0000000000
0000000000
0000000000
0000000000
0000000000
0000000000
0000000000
0000000000
0000000000
0000000000
ENDCHAR

STARTCHAR Ca1cc
ENCODING 41420
SWIDTH 1000 0
DWIDTH 34 0
BBX 34 34 0 -5
BITMAP
0000000000
0000000000
0000000000
0000000000
0000000000
0000000000
0000000000
0000000000
0000000000
0000000000
0000000000
0000000000
0000000000
0000000000
0000000000
0000000000
0000000000
0000000000
0000000000
0000000000
0000000000
0000000000
1FFFFFFC00
1FFFFFFC00
1FFFFFFC00
3C00001E00
3C00000E00
3800000E00
3800000E00
7800000F00
7000000700
7000000700
0000000000
0000000000
ENDCHAR

STARTCHAR Ca1cd
ENCODING 41421
SWIDTH 1000 0
DWIDTH 34 0
BBX 34 34 0 -5
BITMAP
0000000000
0000000000
0000000000
7000000700
7000000700
7800000F00
3800000E00
3800000E00
3C00000E00
3C00001E00
1FFFFFFC00
1FFFFFFC00
1FFFFFFC00
0000000000
0000000000
0000000000
0000000000
0000000000
0000000000
0000000000
0000000000
0000000000
0000000000
0000000000
0000000000
0000000000
0000000000
0000000000
0000000000
0000000000
0000000000
0000000000
0000000000
0000000000
ENDCHAR

STARTCHAR Ca1ce
ENCODING 41422
SWIDTH 1000 0
DWIDTH 34 0
BBX 34 34 0 -5
BITMAP
0000000000
0000000000
0000000000
0000000000
0000000000
0000000000
0000000000
0000000000
0000000000
0000000000
0000000000
0000000000
0000000000
0000000000
0000000000
0000000000
0000000000
0000000000
0000000000
0000000000
0000000000
0000000000
3FFFFFFE00
3FFFFFFE00
3FFFFFFE00
3800000E00
3800000E00
3800000E00
3800000E00
3800000E00
3800000E00
3800000E00
0000000000
0000000000
ENDCHAR

STARTCHAR Ca1cf
ENCODING 41423
SWIDTH 1000 0
DWIDTH 34 0
BBX 34 34 0 -5
BITMAP
0000000000
0000000000
0000000000
3800000E00
3800000E00
3800000E00
3800000E00
3800000E00
3800000E00
3800000E00
3FFFFFFE00
3FFFFFFE00
3FFFFFFE00
0000000000
0000000000
0000000000
0000000000
0000000000
0000000000
0000000000
0000000000
0000000000
0000000000
0000000000
0000000000
0000000000
0000000000
0000000000
0000000000
0000000000
0000000000
0000000000
0000000000
0000000000
ENDCHAR

STARTCHAR Ca1d0
ENCODING 41424
SWIDTH 1000 0
DWIDTH 34 0
BBX 34 34 0 -5
BITMAP
0000000000
0000000000
0000000000
0000000000
0000000000
0000000000
0000000000
0000000000
0000000000
0000000000
0000000000
0000000000
0000000000
0000000000
0000000000
0000000000
0000000000
0000000000
0000000000
0000000000
0000000000
0001C00000
0001C00000
0003E00000
0FFFFFF000
1FFF7FFC00
3FFE3FFE00
3E00003E00
3800001E00
3800000E00
3800000E00
0000000000
0000000000
0000000000
ENDCHAR

STARTCHAR Ca1d1
ENCODING 41425
SWIDTH 1000 0
DWIDTH 34 0
BBX 34 34 0 -5
BITMAP
0000000000
0000000000
0000000000
0000000000
3800000E00
3800000E00
3800001E00
3E00007E00
3FFE3FFC00
1FFF7FFC00
07FFFFF000
0003E00000
0001C00000
0001C00000
0000000000
0000000000
0000000000
0000000000
0000000000
0000000000
0000000000
0000000000
0000000000
0000000000
0000000000
0000000000
0000000000
0000000000
0000000000
0000000000
0000000000
0000000000
0000000000
0000000000
ENDCHAR

STARTCHAR Ca1d2
ENCODING 41426
SWIDTH 1000 0
DWIDTH 34 0
BBX 34 34 0 -5
BITMAP
0000000000
0000000000
0000000000
0000000000
0000000000
0000000000
0000000000
0000000000
0000000000
0000000000
0000000000
0000000000
0000000000
0000000000
0000800000
0001C00000
0003E00000
0007700000
000E380000
001C1C0000
00380E0000
0070070000
00E0038000
01C001C000
038000E000
0700007000
0E00003800
1C00001C00
3800000E00
3000000600
2000000200
2000000100
0000000000
0000000000
ENDCHAR

STARTCHAR Ca1d3
ENCODING 41427
SWIDTH 1000 0
DWIDTH 34 0
BBX 34 34 0 -5
BITMAP
0000000000
0000000000
0000000000
2000000100
2000000200
3000000600
3800000E00
1C00001C00
0E00003800
0700007000
038000E000
01C001C000
00E0038000
0070070000
00380E0000
001C1C0000
000E380000
0007700000
0003E00000
0001C00000
0000800000
0000000000
0000000000
0000000000
0000000000
0000000000
0000000000
0000000000
0000000000
0000000000
0000000000
0000000000
0000000000
0000000000
ENDCHAR

STARTCHAR Ca1d4
ENCODING 41428
SWIDTH 1000 0
DWIDTH 34 0
BBX 34 34 0 -5
BITMAP
0000000000
0000000000
0000000000
0000000000
0000000000
0000000000
0000000000
0000000000
0000800000
0001C00000
0003E00000
0007F00000
000F780000
001E3C0000
003C1E0000
00788F0000
00F1C78000
01C3E1C000
038770E000
070E387000
0E1C1C3800
1C380E1C00
3870070E00
31E0038600
23C001E200
278000F100
0F00007800
1E00003C00
3C00001E00
3800000E00
3000000600
2000000200
0000000000
0000000000
ENDCHAR

STARTCHAR Ca1d5
ENCODING 41429
SWIDTH 1000 0
DWIDTH 34 0
BBX 34 34 0 -5
BITMAP
0000000000
0000000000
0000000000
2000000200
3000000600
3800000E00
3C00001E00
1E00003C00
0F00007800
278000F100
23C001E200
30E0038600
3870070E00
1C380E1C00
0E1C1C3800
070E387000
038770E000
01E3E1C000
00F1C78000
00788F0000
003C1E0000
001E3C0000
000F780000
0007F00000
0003E00000
0001C00000
0000800000
0000000000
0000000000
0000000000
0000000000
0000000000
0000000000
0000000000
ENDCHAR

STARTCHAR Ca1d6
ENCODING 41430
SWIDTH 1000 0
DWIDTH 34 0
BBX 34 34 0 -5
BITMAP
0000000000
0000000000
0000000000
0000000000
0000000000
0000000000
0000000000
0000000000
0000000000
0000000000
0000000000
0000000000
0000000000
0000000000
0000000000
0000000000
0000000000
0000000000
0000000000
0000000000
0000000000
01FFFFFE00
01FFFFFE00
01FFFFFE00
0000000E00
0000000E00
0000000E00
0000000E00
0000000E00
0000000E00
0000000E00
0000000E00
0000000000
0000000000
ENDCHAR

STARTCHAR Ca1d7
ENCODING 41431
SWIDTH 1000 0
DWIDTH 34 0
BBX 34 34 0 -5
BITMAP
0000000000
0000000000
0000000000
3800000000
3800000000
3800000000
3800000000
3800000000
3800000000
3800000000
3800000000
3FFFFFC000
3FFFFFC000
3FFFFFC000
0000000000
0000000000
0000000000
0000000000
0000000000
0000000000
0000000000
0000000000
0000000000
0000000000
0000000000
0000000000
0000000000
0000000000
0000000000
0000000000
0000000000
0000000000
0000000000
0000000000
ENDCHAR

STARTCHAR Ca1d8
ENCODING 41432
SWIDTH 1000 0
DWIDTH 34 0
BBX 34 34 0 -5
BITMAP
0000000000
0000000000
0000000000
0000000000
0000000000
0000000000
0000000000
0000000000
0000000000
0000000000
0000000000
0000000000
0000000000
0000000000
0000000000
0000000000
0000000000
0000000000
01FFFFFE00
01FFFFFE00
01FFFFFE00
01C0000600
01C0000600
01FFFFC600
01FFFFC600
01FFFFC600
000000C600
000000C600
000000C600
000000C600
000000FE00
000000FE00
0000000000
0000000000
ENDCHAR

STARTCHAR Ca1d9
ENCODING 41433
SWIDTH 1000 0
DWIDTH 34 0
BBX 34 34 0 -5
BITMAP
0000000000
0000000000
0000000000
3F80000000
3F80000000
3180000000
3180000000
3180000000
3180000000
31FFFFC000
31FFFFC000
31FFFFC000
300001C000
300001C000
3FFFFFC000
3FFFFFC000
3FFFFFC000
0000000000
0000000000
0000000000
0000000000
0000000000
0000000000
0000000000
0000000000
0000000000
0000000000
0000000000
0000000000
0000000000
0000000000
0000000000
0000000000
0000000000
ENDCHAR

STARTCHAR Ca1da
ENCODING 41434
SWIDTH 1000 0
DWIDTH 34 0
BBX 34 34 0 -5
BITMAP
0000000000
0000000000
0000000000
0000000000
0000000000
0000000000
0000000000
0000000000
0000000000
0000000000
0000000000
0000000000
0000000000
0000000000
0000000000
0000000000
0000000000
0000000000
0000000000
0000000000
0000000000
0000000000
0000000000
3FFFFFFE00
3FFFFFFE00
3FFFFFFE00
3FE003FE00
3F00007E00
3C00001E00
3000000600
2000000200
2000000100
0000000000
0000000000
ENDCHAR

STARTCHAR Ca1db
ENCODING 41435
SWIDTH 1000 0
DWIDTH 34 0
BBX 34 34 0 -5
BITMAP
0000000000
0000000000
0000000000
2000000100
2000000200
3000000600
3C00001E00
3F00007E00
3FE003FE00
3FFFFFFE00
3FFFFFFE00
3FFFFFFE00
0000000000
0000000000
0000000000
0000000000
0000000000
0000000000
0000000000
0000000000
0000000000
0000000000
0000000000
0000000000
0000000000
0000000000
0000000000
0000000000
0000000000
0000000000
0000000000
0000000000
0000000000
0000000000
ENDCHAR

STARTCHAR Ca2a2
ENCODING 41634
SWIDTH 1000 0
DWIDTH 34 0
BBX 34 34 0 -5
BITMAP
0000000000
0000000000
0000000000
0000000000
0000000000
07FFFFFC00
07FFFFFC00
07FFFFFC00
0700001C00
0700001C00
0700001C00
0700001C00
0700001C00
0700001C00
0700001C00
0700001C00
0700001C00
0700001C00
0700001C00
0700001C00
0700001C00
0700001C00
0700001C00
0700001C00
0700001C00
0700001C00
0700001C00
07FFFFFC00
07FFFFFC00
07FFFFFC00
0000000000
0000000000
0000000000
0000000000
ENDCHAR

STARTCHAR Ca4a1
ENCODING 42145
SWIDTH 1000 0
DWIDTH 34 0
BBX 34 34 0 -5
BITMAP
0000000000
0000000000
0000000000
0000000000
0000000000
0000000000
0000E00000
0001C00000
0001C04000
0001FFC000
003FFFC000
003FFF0000
0039C20000
0001C38000
0001FFC000
0001FFF000
0003F7F800
000FCE3C00
001FCE1C00
003DDC1C00
0039FC0E00
0078F81C00
0070F01C00
0071E03C00
0077E07C00
007FE7F800
003EC7F000
001803C000
0000000000
0000000000
0000000000
0000000000
0000000000
0000000000
ENDCHAR

STARTCHAR Ca4a3
ENCODING 42147
SWIDTH 1000 0
DWIDTH 34 0
BBX 34 34 0 -5
BITMAP
0000000000
0000000000
0000000000
0000000000
0000000000
0000000000
0000000000
0000000000
01C0000000
01C0070000
01C00F0000
01C0078000
01C003C000
01C003C000
01C001E000
01E001F000
01E000F000
01E000F000
00E1007800
00E1807800
00F1C04000
00F3C00000
007F800000
007F800000
003F000000
001E000000
0000000000
0000000000
0000000000
0000000000
0000000000
0000000000
0000000000
0000000000
ENDCHAR

STARTCHAR Ca4a5
ENCODING 42149
SWIDTH 1000 0
DWIDTH 34 0
BBX 34 34 0 -5
BITMAP
0000000000
0000000000
0000000000
0000000000
0000000000
0000078000
000007F000
00000FF800
000000F000
0000003000
0000000000
000000F000
00000FFC00
0000FFFE00
00007F9F00
0000780F00
0000200700
0000000700
0000000700
0000000700
0000000700
0000000F00
0000001E00
0000007E00
000001FC00
00000FF000
000007E000
0000038000
0000000000
0000000000
0000000000
0000000000
0000000000
0000000000
ENDCHAR

STARTCHAR Ca4a7
ENCODING 42151
SWIDTH 1000 0
DWIDTH 34 0
BBX 34 34 0 -5
BITMAP
0000000000
0000000000
0000000000
0000000000
0000000000
0000700000
0000FE0000
0000FF0000
00001F0000
0000060000
0000000000
0000020000
0007FF0000
0007FFC000
0007FF8000
00000F0000
00001E0000
00003C0000
0000780000
0000FE0000
0001FF0000
0003E70000
0007C70000
000F078000
001E07FE00
003C03FE00
001C03FE00
0008000000
0000000000
0000000000
0000000000
0000000000
0000000000
0000000000
ENDCHAR

STARTCHAR Ca4a9
ENCODING 42153
SWIDTH 1000 0
DWIDTH 34 0
BBX 34 34 0 -5
BITMAP
0000000000
0000000000
0000000000
0000000000
0000000000
0000000000
0001C00000
0001C00000
0001C06000
0001C2F000
001FFCFC00
001FFE3E00
001FF81C00
0001C00800
0001C00000
0001DFC000
0001FFF000
0007FFF800
000FC03C00
001FC01C00
003DC01C00
0039C01C00
0071C01C00
0039C03C00
0039D1F800
001FCFF000
000F8FE000
0003070000
0000000000
0000000000
0000000000
0000000000
0000000000
0000000000
ENDCHAR

STARTCHAR Ca4c3
ENCODING 42179
SWIDTH 1000 0
DWIDTH 34 0
BBX 34 34 0 -5
BITMAP
0000000000
0000000000
0000000000
0000000000
0000000000
0000000000
0000000000
0000000000
0000FE0000
001FFF8000
03FFFFE000
01FFC3F000
01F800F000
0180007000
0000007800
0000007800
0000007800
0000007800
000000F000
000001F000
000007E000
0000FFC000
000FFF0000
0007FC0000
0007E00000
0000000000
0000000000
0000000000
0000000000
0000000000
0000000000
0000000000
0000000000
0000000000
ENDCHAR

STARTCHAR Ca4e3
ENCODING 42211
SWIDTH 1000 0
DWIDTH 34 0
BBX 34 34 0 -5
BITMAP
0000000000
0000000000
0000000000
0000000000
0000000000
0000080000
00001C0000
00013E0000
00071F8000
0007870000
0003820000
000383F800
0003FFFC00
0001FFFE00
000FFE0F00
007FE00700
007FE00700
0038F00F00
0000F0FE00
000073FC00
00007BF800
0000798000
0000380000
00003C0000
00003C0000
00001C0000
00001E0000
00001E0000
0000080000
0000000000
0000000000
0000000000
0000000000
0000000000
ENDCHAR

STARTCHAR Ca4e5
ENCODING 42213
SWIDTH 1000 0
DWIDTH 34 0
BBX 34 34 0 -5
BITMAP
0000000000
0000000000
0000000000
0000000000
0000000000
0000038000
000E038000
000E038000
000E038000
001E0FF800
001C3FFC00
001CFFFE00
001DF38F00
001DE38F00
001FC38700
001F838700
001F038700
001E238700
001E738F00
001C7F9E00
001C3FFE00
001C1FFC00
001C07F000
001C0F0000
00100E0000
00003E0000
00001C0000
0000080000
0000000000
0000000000
0000000000
0000000000
0000000000
0000000000
ENDCHAR

STARTCHAR Ca4e7
ENCODING 42215
SWIDTH 1000 0
DWIDTH 34 0
BBX 34 34 0 -5
BITMAP
0000000000
0000000000
0000000000
0000000000
0000000000
0000000000
00000E0000
00000E0000
00000E0000
00000E0000
00000E1C00
00000FFC00
00000FFC00
00000FF800
00000E0000
00000E0000
00000E0000
00000E0000
00000E0000
0001FE0000
0007FF8000
000FFFE000
000E0FF800
000E0EFE00
000F1E3C00
0007FE1C00
0003FC0400
0000F00000
0000000000
0000000000
0000000000
0000000000
0000000000
0000000000
ENDCHAR

STARTCHAR Ca4ee
ENCODING 42222
SWIDTH 1000 0
DWIDTH 34 0
BBX 34 34 0 -5
BITMAP
0000000000
0000000000
0000000000
0000000000
0000000000
0000000000
0003800000
0003800000
0007800000
0007800000
001F800000
007FC3C000
007F9FF000
0067FFF800
0007FEFC00
0007E03E00
000FC01E00
000F000E00
001F000E00
003F000E00
003F001E00
0077003C00
00F7007C00
00E701F800
00471FF000
00070FC000
0007070000
0007040000
0000000000
0000000000
0000000000
0000000000
0000000000
0000000000
ENDCHAR

STARTCHAR Ca5a1
ENCODING 42401
SWIDTH 1000 0
DWIDTH 34 0
BBX 34 34 0 -5
BITMAP
0000000000
0000000000
0000000000
0000000000
0000000000
0000000000
000001FC00
000FFFFE00
000FFFFF00
000FFFFE00
0000001E00
00001C3C00
00001C3C00
00001C7800
00001CF000
00001FE000
00001DC000
00003C4000
00003C0000
0000780000
0000780000
0000F00000
0001F00000
000FE00000
0007800000
0007000000
0002000000
0000000000
0000000000
0000000000
0000000000
0000000000
0000000000
0000000000
ENDCHAR

STARTCHAR Ca5a3
ENCODING 42403
SWIDTH 1000 0
DWIDTH 34 0
BBX 34 34 0 -5
BITMAP
0000000000
0000000000
0000000000
0000000000
0000000000
0000000800
0000001A00
0000003C00
0000007C00
000000F800
000001F000
000003E000
000007C000
00000FC000
00001FC000
00007FC000
0001FFC000
000FF3C000
0007E3C000
000783C000
000203C000
000003C000
000003C000
000003C000
000003C000
000003C000
000003C000
000003C000
0000000000
0000000000
0000000000
0000000000
0000000000
0000000000
ENDCHAR

STARTCHAR Ca5a5
ENCODING 42405
SWIDTH 1000 0
DWIDTH 34 0
BBX 34 34 0 -5
BITMAP
0000000000
0000000000
0000000000
0000000000
0000000000
0000070000
0000070000
0000070000
0000070000
0007FFFE00
0007FFFF00
0007FFFF00
0007000F00
0007000E00
0007000E00
0007001E00
0007001E00
0007003C00
0000003C00
0000007800
000000F800
000001F000
000003E000
00000FC000
00007F8000
00003F0000
00001C0000
0000080000
0000000000
0000000000
0000000000
0000000000
0000000000
0000000000
ENDCHAR

STARTCHAR Ca5a7
ENCODING 42407
SWIDTH 1000 0
DWIDTH 34 0
BBX 34 34 0 -5
BITMAP
0000000000
0000000000
0000000000
0000000000
0000000000
0000000000
0000000000
0000000000
0000000000
007FFFC000
007FFFC000
007FFFC000
0000E00000
0000E00000
0000E00000
0000E00000
0000E00000
0000E00000
0000E00000
0000E00000
0000E00000
0000E00000
01FFFFF000
01FFFFF000
01FFFFF000
0000000000
0000000000
0000000000
0000000000
0000000000
0000000000
0000000000
0000000000
0000000000
ENDCHAR

STARTCHAR Ca5a9
ENCODING 42409
SWIDTH 1000 0
DWIDTH 34 0
BBX 34 34 0 -5
BITMAP
0000000000
0000000000
0000000000
0000000000
0000000000
0000000000
0000038000
0000038000
0000038000
0000038000
001FFFFE00
001FFFFE00
001FFFFE00
00000F8000
00001F8000
00001F8000
00003B8000
00007B8000
0000F38000
0003E38000
0007C38000
000F838000
003F038000
003E038000
00187F8000
00003F8000
00003F8000
00001E0000
0000000000
0000000000
0000000000
0000000000
0000000000
0000000000
ENDCHAR

STARTCHAR Ca5c3
ENCODING 42435
SWIDTH 1000 0
DWIDTH 34 0
BBX 34 34 0 -5
BITMAP
0000000000
0000000000
0000000000
0000000000
0000000000
0000000000
0000040000
00003C0C00
00063C0E00
001E1E1E00
000F1E1E00
000F0E1C00
00078F3C00
0007883C00
0006003800
0000007800
000000F000
000000F000
000001E000
000003C000
00000FC000
00001F8000
00007F0000
0003FC0000
0001F80000
0000E00000
0000400000
0000000000
0000000000
0000000000
0000000000
0000000000
0000000000
0000000000
ENDCHAR

STARTCHAR Ca5e3
ENCODING 42467
SWIDTH 1000 0
DWIDTH 34 0
BBX 34 34 0 -5
BITMAP
0000000000
0000000000
0000000000
0000000000
0000000000
0000000000
0000200000
0001C00000
0001C00000
0001E00000
0001E01C00
0000E7FE00
0003FFFE00
007FFFFE00
007FFE3C00
003FF07800
002070F800
000070F000
000073E000
000079C000
0000788000
0000380000
0000380000
0000380000
00003C0000
00003C0000
00001C0000
00001C0000
0000000000
0000000000
0000000000
0000000000
0000000000
0000000000
ENDCHAR

STARTCHAR Ca5e5
ENCODING 42469
SWIDTH 1000 0
DWIDTH 34 0
BBX 34 34 0 -5
BITMAP
0000000000
0000000000
0000000000
0000000000
0000000000
0000000000
0000000000
0000000000
0000000000
00FFFE0000
00FFFE0000
00FFFE0000
00FFFE0000
00001E0000
00001E0000
00001E0000
00001C0000
00001C0000
00001C0000
00003C0000
00003C0000
00003C0000
03FFFFE000
03FFFFE000
03FFFFE000
0000000000
0000000000
0000000000
0000000000
0000000000
0000000000
0000000000
0000000000
0000000000
ENDCHAR

STARTCHAR Ca5e7
ENCODING 42471
SWIDTH 1000 0
DWIDTH 34 0
BBX 34 34 0 -5
BITMAP
0000000000
0000000000
0000000000
0000000000
0000000000
0000000000
0000000000
0007FFFC00
0007FFFC00
0007FFFC00
0000003C00
0000003C00
0000003C00
0000003C00
0003FFFC00
0003FFFC00
0003FFFC00
0000003C00
0000003C00
0000003C00
0000003C00
0007FFFC00
0007FFFC00
0007FFFC00
0000003C00
0000003C00
0000000000
0000000000
0000000000
0000000000
0000000000
0000000000
0000000000
0000000000
ENDCHAR

STARTCHAR Ca5ee
ENCODING 42478
SWIDTH 1000 0
DWIDTH 34 0
BBX 34 34 0 -5
BITMAP
0000000000
0000000000
0000000000
0000000000
0000000000
0000000000
0000000000
000FFFF800
000FFFFC00
000FFFFE00
000E001E00
000E001C00
000E001C00
000E001C00
000E003C00
000E003C00
000E003800
0000007800
000000F800
000000F000
000001E000
000007E000
00000FC000
0000BF8000
00007E0000
00003C0000
0000300000
0000000000
0000000000
0000000000
0000000000
0000000000
0000000000
0000000000
ENDCHAR

STARTCHAR Ca5f5
ENCODING 42485
SWIDTH 1000 0
DWIDTH 34 0
BBX 34 34 0 -5
BITMAP
0000000000
0000000000
0000000000
0000000000
0000000000
0000000000
00000F0000
00000F0000
00000F0000
00000F0000
0007FFFE00
0007FFFE00
0007FFFE00
00000E0E00
00000E0E00
00001E0E00
00001E0E00
00001C0E00
00003C0E00
0000781E00
0000F81E00
0001F01E00
0003E31E00
0007C3FC00
000F83FC00
000701F800
0002000000
0000000000
0000000000
0000000000
0000000000
0000000000
0000000000
0000000000
ENDCHAR

STARTCHAR Ca5f6
ENCODING 42486
SWIDTH 1000 0
DWIDTH 34 0
BBX 34 34 0 -5
BITMAP
0000000000
0000000000
0000000000
0000000000
0000000000
0000000000
0001000000
0001E00000
0001C00000
0003C00000
0003C00000
0007FFFE00
0007FFFE00
000FFFFE00
000F070000
001E070000
003C070000
007C0F0000
00380F0000
00100F0000
00001E0000
00001E0000
00003C0000
00007C0000
0000F80000
0003F00000
0007E00000
0001800000
0000000000
0000000000
0000000000
0000000000
0000000000
0000000000
ENDCHAR
ENDFONT
